<svg xmlns="http://www.w3.org/2000/svg" viewBox="0 0 120 40" fill="none">
  <!-- Paint brush -->
  <path d="M8 32l12-12 4 4-12 12z" fill="#00b050"/>
  <path d="M20 20l8-8c2-2 6-2 8 0s2 6 0 8l-8 8z" fill="#00b050"/>
  <circle cx="32" cy="16" r="3" fill="#00b050"/>
  
  <!-- Paint drop -->
  <path d="M12 36c-2-2-2-6 0-8l4-4c2 2 2 6 0 8l-4 4z" fill="#009140"/>
  
  <!-- Location pin -->
  <circle cx="40" cy="20" r="8" fill="#e6f7ea" stroke="#00b050" stroke-width="2"/>
  <circle cx="40" cy="18" r="3" fill="#00b050"/>
  <path d="M40 26l-4 6h8l-4-6z" fill="#00b050"/>
  
  <!-- Text -->
  <text x="56" y="16" font-family="Arial, sans-serif" font-size="12" font-weight="bold" fill="#00b050">
    Painter
  </text>
  <text x="56" y="28" font-family="Arial, sans-serif" font-size="12" font-weight="bold" fill="#333">
    Near Me
  </text>
</svg> 