<svg xmlns="http://www.w3.org/2000/svg" viewBox="0 0 64 64" fill="none">
  <circle cx="32" cy="32" r="30" fill="#e6f7ea" stroke="#00b050" stroke-width="2"/>
  <path d="M32 12l-12 6v14c0 8 12 18 12 18s12-10 12-18V18l-12-6z" fill="#00b050"/>
  <path d="M32 16l-8 4v10c0 6 8 12 8 12s8-6 8-12V20l-8-4z" fill="white"/>
  
  <!-- Checkmark -->
  <path d="M26 30l4 4 8-8" stroke="#00b050" stroke-width="3" stroke-linecap="round" stroke-linejoin="round"/>
  
  <!-- Trust badges around shield -->
  <circle cx="16" cy="24" r="3" fill="#00b050"/>
  <circle cx="48" cy="24" r="3" fill="#00b050"/>
  <circle cx="16" cy="40" r="3" fill="#00b050"/>
  <circle cx="48" cy="40" r="3" fill="#00b050"/>
  
  <!-- Stars in badges -->
  <path d="M16 22l1 2h2l-1.5 1.5L18 28l-2-1-2 1 .5-1.5L13 25h2z" fill="white"/>
  <path d="M48 22l1 2h2l-1.5 1.5L50 28l-2-1-2 1 .5-1.5L45 25h2z" fill="white"/>
  <path d="M16 38l1 2h2l-1.5 1.5L18 44l-2-1-2 1 .5-1.5L13 41h2z" fill="white"/>
  <path d="M48 38l1 2h2l-1.5 1.5L50 44l-2-1-2 1 .5-1.5L45 41h2z" fill="white"/>
</svg> 